<svg xmlns="http://www.w3.org/2000/svg" width="1920" height="1080"><path d="M-242,-351L215,-315L1244,-291Z" fill="#d6efc2" stroke="#d6efc2" stroke-width="1.51"/><path d="M215,-315L471,-291L1244,-291Z" fill="#bee4c3" stroke="#bee4c3" stroke-width="1.51"/><path d="M1331,1414L726,1425L1589,1426Z" fill="#235a90" stroke="#235a90" stroke-width="1.51"/><path d="M1631,-248L1762,-202L1949,-207Z" fill="#9a9db1" stroke="#9a9db1" stroke-width="1.51"/><path d="M1759,1336L1589,1426L2016,1310Z" fill="#1e3888" stroke="#1e3888" stroke-width="1.51"/><path d="M2180,730L1971,1000L2223,1036Z" fill="#214b93" stroke="#214b93" stroke-width="1.51"/><path d="M-242,-351L1244,-291L2227,-333Z" fill="#a8d2ca" stroke="#a8d2ca" stroke-width="1.51"/><path d="M1244,-291L1631,-248L2227,-333Z" fill="#9ca4b9" stroke="#9ca4b9" stroke-width="1.51"/><path d="M1631,-248L1949,-207L2227,-333Z" fill="#9a93af" stroke="#9a93af" stroke-width="1.51"/><path d="M1984,-79L2184,-5L2227,-333Z" fill="#8b8895" stroke="#8b8895" stroke-width="1.51"/><path d="M1949,-207L1984,-79L2227,-333Z" fill="#938ca1" stroke="#938ca1" stroke-width="1.51"/><path d="M2184,-5L2186,132L2227,-333Z" fill="#82838f" stroke="#82838f" stroke-width="1.51"/><path d="M1994,524L2180,730L2247,506Z" fill="#32689b" stroke="#32689b" stroke-width="1.51"/><path d="M2186,132L2152,321L2247,506Z" fill="#507392" stroke="#507392" stroke-width="1.51"/><path d="M2180,730L2223,1036L2247,506Z" fill="#205891" stroke="#205891" stroke-width="1.51"/><path d="M2227,-333L2186,132L2247,506Z" fill="#717d8e" stroke="#717d8e" stroke-width="1.51"/><path d="M2016,1310L1589,1426L2257,1371Z" fill="#1d2d82" stroke="#1d2d82" stroke-width="1.51"/><path d="M2223,1036L2111,1163L2257,1371Z" fill="#1c2f80" stroke="#1c2f80" stroke-width="1.51"/><path d="M2111,1163L2016,1310L2257,1371Z" fill="#1b2b7e" stroke="#1b2b7e" stroke-width="1.51"/><path d="M2247,506L2223,1036L2257,1371Z" fill="#1a4185" stroke="#1a4185" stroke-width="1.51"/><path d="M2152,321L1994,524L2247,506Z" fill="#43709b" stroke="#43709b" stroke-width="1.51"/><path d="M1920,760L1971,1000L2180,730Z" fill="#2759a1" stroke="#2759a1" stroke-width="1.51"/><path d="M2066,1142L2111,1163L2223,1036Z" fill="#1e3989" stroke="#1e3989" stroke-width="1.51"/><path d="M471,-291L771,-238L1244,-291Z" fill="#b2ddc4" stroke="#b2ddc4" stroke-width="1.51"/><path d="M1971,1000L2066,1142L2223,1036Z" fill="#203f8f" stroke="#203f8f" stroke-width="1.51"/><path d="M1994,524L1920,760L2180,730Z" fill="#3167a5" stroke="#3167a5" stroke-width="1.51"/><path d="M1984,-79L1942,51L2184,-5Z" fill="#87899f" stroke="#87899f" stroke-width="1.51"/><path d="M1980,282L2152,321L2186,132Z" fill="#617b9a" stroke="#617b9a" stroke-width="1.51"/><path d="M2184,-5L1942,51L2186,132Z" fill="#7c8499" stroke="#7c8499" stroke-width="1.51"/><path d="M1942,51L1980,282L2186,132Z" fill="#7383a0" stroke="#7383a0" stroke-width="1.51"/><path d="M1980,282L1994,524L2152,321Z" fill="#5177a2" stroke="#5177a2" stroke-width="1.51"/><path d="M2066,1142L2016,1310L2111,1163Z" fill="#21338b" stroke="#21338b" stroke-width="1.51"/><path d="M1980,282L1839,343L1994,524Z" fill="#557cab" stroke="#557cab" stroke-width="1.51"/><path d="M1712,1210L2016,1310L2066,1142Z" fill="#253795" stroke="#253795" stroke-width="1.51"/><path d="M1971,1000L1712,1210L2066,1142Z" fill="#26429b" stroke="#26429b" stroke-width="1.51"/><path d="M1920,760L1770,957L1971,1000Z" fill="#2858a5" stroke="#2858a5" stroke-width="1.51"/><path d="M1942,51L1786,66L1980,282Z" fill="#7b8aa9" stroke="#7b8aa9" stroke-width="1.51"/><path d="M1732,674L1920,760L1994,524Z" fill="#3570ae" stroke="#3570ae" stroke-width="1.51"/><path d="M1712,1210L1759,1336L2016,1310Z" fill="#223a91" stroke="#223a91" stroke-width="1.51"/><path d="M1770,957L1712,1210L1971,1000Z" fill="#264da0" stroke="#264da0" stroke-width="1.51"/><path d="M1786,66L1839,343L1980,282Z" fill="#6b88ab" stroke="#6b88ab" stroke-width="1.51"/><path d="M1839,343L1698,592L1994,524Z" fill="#457daf" stroke="#457daf" stroke-width="1.51"/><path d="M1698,592L1732,674L1994,524Z" fill="#3879b0" stroke="#3879b0" stroke-width="1.51"/><path d="M1786,66L1942,51L1984,-79Z" fill="#898fa8" stroke="#898fa8" stroke-width="1.51"/><path d="M1696,-73L1786,66L1984,-79Z" fill="#8d96aa" stroke="#8d96aa" stroke-width="1.51"/><path d="M1762,-202L1696,-73L1984,-79Z" fill="#9599aa" stroke="#9599aa" stroke-width="1.51"/><path d="M1949,-207L1762,-202L1984,-79Z" fill="#9894a9" stroke="#9894a9" stroke-width="1.51"/><path d="M1244,-291L1434,-225L1631,-248Z" fill="#9eb8be" stroke="#9eb8be" stroke-width="1.51"/><path d="M1732,674L1770,957L1920,760Z" fill="#2969ad" stroke="#2969ad" stroke-width="1.51"/><path d="M1615,1019L1712,1210L1770,957Z" fill="#2554a3" stroke="#2554a3" stroke-width="1.51"/><path d="M1492,387L1698,592L1839,343Z" fill="#4a8bb3" stroke="#4a8bb3" stroke-width="1.51"/><path d="M1644,131L1492,387L1839,343Z" fill="#6093b1" stroke="#6093b1" stroke-width="1.51"/><path d="M1786,66L1644,131L1839,343Z" fill="#7392ad" stroke="#7392ad" stroke-width="1.51"/><path d="M1492,387L1589,589L1698,592Z" fill="#3b8db7" stroke="#3b8db7" stroke-width="1.51"/><path d="M1732,674L1548,726L1770,957Z" fill="#2572b2" stroke="#2572b2" stroke-width="1.51"/><path d="M1548,726L1615,1019L1770,957Z" fill="#2468ad" stroke="#2468ad" stroke-width="1.51"/><path d="M1696,-73L1644,131L1786,66Z" fill="#879cae" stroke="#879cae" stroke-width="1.51"/><path d="M1631,-248L1696,-73L1762,-202Z" fill="#99a2af" stroke="#99a2af" stroke-width="1.51"/><path d="M1712,1210L1589,1426L1759,1336Z" fill="#20408f" stroke="#20408f" stroke-width="1.51"/><path d="M1631,-248L1543,-157L1696,-73Z" fill="#99a7b0" stroke="#99a7b0" stroke-width="1.51"/><path d="M1615,1019L1489,1119L1712,1210Z" fill="#2555a4" stroke="#2555a4" stroke-width="1.51"/><path d="M1698,592L1589,589L1732,674Z" fill="#3380b4" stroke="#3380b4" stroke-width="1.51"/><path d="M1589,589L1548,726L1732,674Z" fill="#2e7fb5" stroke="#2e7fb5" stroke-width="1.51"/><path d="M1543,-157L1644,131L1696,-73Z" fill="#8ea3b0" stroke="#8ea3b0" stroke-width="1.51"/><path d="M1489,1119L1589,1426L1712,1210Z" fill="#264a9c" stroke="#264a9c" stroke-width="1.51"/><path d="M1548,726L1426,986L1615,1019Z" fill="#236fb0" stroke="#236fb0" stroke-width="1.51"/><path d="M1489,1119L1331,1414L1589,1426Z" fill="#235098" stroke="#235098" stroke-width="1.51"/><path d="M1292,104L1492,387L1644,131Z" fill="#6fa5b7" stroke="#6fa5b7" stroke-width="1.51"/><path d="M1543,-157L1328,-53L1644,131Z" fill="#8fadb4" stroke="#8fadb4" stroke-width="1.51"/><path d="M1328,-53L1292,104L1644,131Z" fill="#87b1b7" stroke="#87b1b7" stroke-width="1.51"/><path d="M1292,104L1349,359L1492,387Z" fill="#60a9bb" stroke="#60a9bb" stroke-width="1.51"/><path d="M1434,-225L1543,-157L1631,-248Z" fill="#9cb0b7" stroke="#9cb0b7" stroke-width="1.51"/><path d="M1442,1115L1331,1414L1489,1119Z" fill="#295aa6" stroke="#295aa6" stroke-width="1.51"/><path d="M1426,986L1489,1119L1615,1019Z" fill="#2463ab" stroke="#2463ab" stroke-width="1.51"/><path d="M881,1353L726,1425L1331,1414Z" fill="#326895" stroke="#326895" stroke-width="1.51"/><path d="M1492,387L1316,609L1589,589Z" fill="#3896bc" stroke="#3896bc" stroke-width="1.51"/><path d="M1349,687L1548,726L1589,589Z" fill="#2c89ba" stroke="#2c89ba" stroke-width="1.51"/><path d="M1316,609L1349,687L1589,589Z" fill="#2e93bd" stroke="#2e93bd" stroke-width="1.51"/><path d="M1434,-225L1328,-53L1543,-157Z" fill="#9bb7b6" stroke="#9bb7b6" stroke-width="1.51"/><path d="M1349,687L1426,986L1548,726Z" fill="#2182b9" stroke="#2182b9" stroke-width="1.51"/><path d="M1426,986L1442,1115L1489,1119Z" fill="#2664ac" stroke="#2664ac" stroke-width="1.51"/><path d="M1349,359L1316,609L1492,387Z" fill="#46a0bd" stroke="#46a0bd" stroke-width="1.51"/><path d="M1098,973L1100,1174L1426,986Z" fill="#2b78b3" stroke="#2b78b3" stroke-width="1.51"/><path d="M1349,687L1251,695L1426,986Z" fill="#208bbd" stroke="#208bbd" stroke-width="1.51"/><path d="M1251,695L1098,973L1426,986Z" fill="#2486ba" stroke="#2486ba" stroke-width="1.51"/><path d="M1252,-129L1328,-53L1434,-225Z" fill="#9bbfb9" stroke="#9bbfb9" stroke-width="1.51"/><path d="M1426,986L1100,1174L1442,1115Z" fill="#276daf" stroke="#276daf" stroke-width="1.51"/><path d="M1100,1174L1331,1414L1442,1115Z" fill="#2c62aa" stroke="#2c62aa" stroke-width="1.51"/><path d="M1234,382L1316,609L1349,359Z" fill="#45a7c1" stroke="#45a7c1" stroke-width="1.51"/><path d="M1244,-291L1252,-129L1434,-225Z" fill="#9ec2bf" stroke="#9ec2bf" stroke-width="1.51"/><path d="M771,-238L1041,-203L1244,-291Z" fill="#a7d4c3" stroke="#a7d4c3" stroke-width="1.51"/><path d="M1087,1302L881,1353L1331,1414Z" fill="#2f649a" stroke="#2f649a" stroke-width="1.51"/><path d="M1100,1174L1087,1302L1331,1414Z" fill="#2f64a2" stroke="#2f64a2" stroke-width="1.51"/><path d="M1098,194L1234,382L1292,104Z" fill="#6fb8be" stroke="#6fb8be" stroke-width="1.51"/><path d="M1234,382L1105,489L1316,609Z" fill="#40aac2" stroke="#40aac2" stroke-width="1.51"/><path d="M1316,609L1251,695L1349,687Z" fill="#2998c1" stroke="#2998c1" stroke-width="1.51"/><path d="M1292,104L1234,382L1349,359Z" fill="#61b0be" stroke="#61b0be" stroke-width="1.51"/><path d="M1252,-129L1292,104L1328,-53Z" fill="#91bfbb" stroke="#91bfbb" stroke-width="1.51"/><path d="M1252,-129L1098,194L1292,104Z" fill="#8bc1bc" stroke="#8bc1bc" stroke-width="1.51"/><path d="M1105,489L1251,695L1316,609Z" fill="#32a3c2" stroke="#32a3c2" stroke-width="1.51"/><path d="M956,94L1098,194L1252,-129Z" fill="#8ec8bc" stroke="#8ec8bc" stroke-width="1.51"/><path d="M970,-117L956,94L1252,-129Z" fill="#9acdbc" stroke="#9acdbc" stroke-width="1.51"/><path d="M960,885L1098,973L1251,695Z" fill="#2d92bd" stroke="#2d92bd" stroke-width="1.51"/><path d="M920,659L960,885L1251,695Z" fill="#30a1c2" stroke="#30a1c2" stroke-width="1.51"/><path d="M1105,489L920,659L1251,695Z" fill="#37a8c3" stroke="#37a8c3" stroke-width="1.51"/><path d="M1041,-203L970,-117L1252,-129Z" fill="#a2cfbb" stroke="#a2cfbb" stroke-width="1.51"/><path d="M1244,-291L1041,-203L1252,-129Z" fill="#a1cabf" stroke="#a1cabf" stroke-width="1.51"/><path d="M1098,194L1105,489L1234,382Z" fill="#59b4c0" stroke="#59b4c0" stroke-width="1.51"/><path d="M960,885L911,1172L1098,973Z" fill="#3787b6" stroke="#3787b6" stroke-width="1.51"/><path d="M1098,973L911,1172L1100,1174Z" fill="#387bb1" stroke="#387bb1" stroke-width="1.51"/><path d="M911,1172L1087,1302L1100,1174Z" fill="#3a71ac" stroke="#3a71ac" stroke-width="1.51"/><path d="M1098,194L900,340L1105,489Z" fill="#5ebcc0" stroke="#5ebcc0" stroke-width="1.51"/><path d="M900,340L913,464L1105,489Z" fill="#53bbc2" stroke="#53bbc2" stroke-width="1.51"/><path d="M913,464L920,659L1105,489Z" fill="#41b5c4" stroke="#41b5c4" stroke-width="1.51"/><path d="M956,94L900,340L1098,194Z" fill="#78c6be" stroke="#78c6be" stroke-width="1.51"/><path d="M911,1172L881,1353L1087,1302Z" fill="#3c71a6" stroke="#3c71a6" stroke-width="1.51"/><path d="M771,-238L970,-117L1041,-203Z" fill="#a9d8be" stroke="#a9d8be" stroke-width="1.51"/><path d="M814,114L900,340L956,94Z" fill="#83cbbd" stroke="#83cbbd" stroke-width="1.51"/><path d="M815,-122L814,114L956,94Z" fill="#9bd4bb" stroke="#9bd4bb" stroke-width="1.51"/><path d="M688,1083L911,1172L960,885Z" fill="#4688b3" stroke="#4688b3" stroke-width="1.51"/><path d="M717,897L688,1083L960,885Z" fill="#4b94b7" stroke="#4b94b7" stroke-width="1.51"/><path d="M920,659L717,897L960,885Z" fill="#41a1bf" stroke="#41a1bf" stroke-width="1.51"/><path d="M815,-122L956,94L970,-117Z" fill="#9fd5bb" stroke="#9fd5bb" stroke-width="1.51"/><path d="M771,-238L815,-122L970,-117Z" fill="#addaba" stroke="#addaba" stroke-width="1.51"/><path d="M913,464L726,546L920,659Z" fill="#4db8c3" stroke="#4db8c3" stroke-width="1.51"/><path d="M684,667L717,897L920,659Z" fill="#4dacc0" stroke="#4dacc0" stroke-width="1.51"/><path d="M814,114L691,298L900,340Z" fill="#7dcabd" stroke="#7dcabd" stroke-width="1.51"/><path d="M688,1083L881,1353L911,1172Z" fill="#4c7aad" stroke="#4c7aad" stroke-width="1.51"/><path d="M900,340L726,546L913,464Z" fill="#5dbec1" stroke="#5dbec1" stroke-width="1.51"/><path d="M726,546L684,667L920,659Z" fill="#52b5c1" stroke="#52b5c1" stroke-width="1.51"/><path d="M688,1083L726,1425L881,1353Z" fill="#4e76a3" stroke="#4e76a3" stroke-width="1.51"/><path d="M691,298L726,546L900,340Z" fill="#6ac3bf" stroke="#6ac3bf" stroke-width="1.51"/><path d="M626,-77L814,114L815,-122Z" fill="#a7dab9" stroke="#a7dab9" stroke-width="1.51"/><path d="M528,1352L330,1411L726,1425Z" fill="#5d7792" stroke="#5d7792" stroke-width="1.51"/><path d="M688,1083L528,1352L726,1425Z" fill="#587aa2" stroke="#587aa2" stroke-width="1.51"/><path d="M559,74L691,298L814,114Z" fill="#94d4ba" stroke="#94d4ba" stroke-width="1.51"/><path d="M626,-77L559,74L814,114Z" fill="#a6dbb8" stroke="#a6dbb8" stroke-width="1.51"/><path d="M771,-238L626,-77L815,-122Z" fill="#b3deb8" stroke="#b3deb8" stroke-width="1.51"/><path d="M531,1114L528,1352L688,1083Z" fill="#6384aa" stroke="#6384aa" stroke-width="1.51"/><path d="M684,667L527,729L717,897Z" fill="#5aaebe" stroke="#5aaebe" stroke-width="1.51"/><path d="M691,298L494,358L726,546Z" fill="#74c8bd" stroke="#74c8bd" stroke-width="1.51"/><path d="M471,-291L626,-77L771,-238Z" fill="#bce3bb" stroke="#bce3bb" stroke-width="1.51"/><path d="M520,1032L688,1083L717,897Z" fill="#5a93b2" stroke="#5a93b2" stroke-width="1.51"/><path d="M471,613L684,667L726,546Z" fill="#62bcbf" stroke="#62bcbf" stroke-width="1.51"/><path d="M494,358L471,613L726,546Z" fill="#71c5bf" stroke="#71c5bf" stroke-width="1.51"/><path d="M527,729L520,1032L717,897Z" fill="#60a2b8" stroke="#60a2b8" stroke-width="1.51"/><path d="M559,74L494,358L691,298Z" fill="#90d3ba" stroke="#90d3ba" stroke-width="1.51"/><path d="M471,613L527,729L684,667Z" fill="#69babe" stroke="#69babe" stroke-width="1.51"/><path d="M520,1032L531,1114L688,1083Z" fill="#628eaf" stroke="#628eaf" stroke-width="1.51"/><path d="M352,158L494,358L559,74Z" fill="#a4dab8" stroke="#a4dab8" stroke-width="1.51"/><path d="M388,-145L559,74L626,-77Z" fill="#bbe3b6" stroke="#bbe3b6" stroke-width="1.51"/><path d="M471,-291L388,-145L626,-77Z" fill="#c8e8b6" stroke="#c8e8b6" stroke-width="1.51"/><path d="M385,383L390,591L471,613Z" fill="#82cbbe" stroke="#82cbbe" stroke-width="1.51"/><path d="M385,383L471,613L494,358Z" fill="#86cdbc" stroke="#86cdbc" stroke-width="1.51"/><path d="M291,898L520,1032L527,729Z" fill="#73a8b7" stroke="#73a8b7" stroke-width="1.51"/><path d="M311,754L291,898L527,729Z" fill="#7db6bb" stroke="#7db6bb" stroke-width="1.51"/><path d="M344,1142L528,1352L531,1114Z" fill="#7186a9" stroke="#7186a9" stroke-width="1.51"/><path d="M388,-145L352,158L559,74Z" fill="#bde4b5" stroke="#bde4b5" stroke-width="1.51"/><path d="M352,158L385,383L494,358Z" fill="#9ad6b9" stroke="#9ad6b9" stroke-width="1.51"/><path d="M344,1142L330,1411L528,1352Z" fill="#72819d" stroke="#72819d" stroke-width="1.51"/><path d="M520,1032L344,1142L531,1114Z" fill="#7191ae" stroke="#7191ae" stroke-width="1.51"/><path d="M471,613L311,754L527,729Z" fill="#78bcbd" stroke="#78bcbd" stroke-width="1.51"/><path d="M291,898L344,1142L520,1032Z" fill="#7a9ab0" stroke="#7a9ab0" stroke-width="1.51"/><path d="M215,-315L344,-237L471,-291Z" fill="#daf1be" stroke="#daf1be" stroke-width="1.51"/><path d="M344,-237L388,-145L471,-291Z" fill="#d3edba" stroke="#d3edba" stroke-width="1.51"/><path d="M390,591L311,754L471,613Z" fill="#80c2bd" stroke="#80c2bd" stroke-width="1.51"/><path d="M180,12L352,158L388,-145Z" fill="#ccebb4" stroke="#ccebb4" stroke-width="1.51"/><path d="M206,1178L163,1318L330,1411Z" fill="#81869c" stroke="#81869c" stroke-width="1.51"/><path d="M291,898L216,909L344,1142Z" fill="#85a2b1" stroke="#85a2b1" stroke-width="1.51"/><path d="M206,1178L330,1411L344,1142Z" fill="#8289a5" stroke="#8289a5" stroke-width="1.51"/><path d="M352,158L104,411L385,383Z" fill="#a5dbb8" stroke="#a5dbb8" stroke-width="1.51"/><path d="M385,383L170,479L390,591Z" fill="#93d1bb" stroke="#93d1bb" stroke-width="1.51"/><path d="M170,479L311,754L390,591Z" fill="#8dc9bc" stroke="#8dc9bc" stroke-width="1.51"/><path d="M104,411L170,479L385,383Z" fill="#a0d6ba" stroke="#a0d6ba" stroke-width="1.51"/><path d="M344,-237L180,12L388,-145Z" fill="#d7efb3" stroke="#d7efb3" stroke-width="1.51"/><path d="M93,125L104,411L352,158Z" fill="#b8e2b6" stroke="#b8e2b6" stroke-width="1.51"/><path d="M163,1318L-15,1374L330,1411Z" fill="#808394" stroke="#808394" stroke-width="1.51"/><path d="M215,-315L180,12L344,-237Z" fill="#def2b5" stroke="#def2b5" stroke-width="1.51"/><path d="M216,909L206,1178L344,1142Z" fill="#8699ad" stroke="#8699ad" stroke-width="1.51"/><path d="M180,12L93,125L352,158Z" fill="#c9eab4" stroke="#c9eab4" stroke-width="1.51"/><path d="M21,-233L180,12L215,-315Z" fill="#e4f5b5" stroke="#e4f5b5" stroke-width="1.51"/><path d="M163,830L291,898L311,754Z" fill="#89b6b9" stroke="#89b6b9" stroke-width="1.51"/><path d="M170,479L163,830L311,754Z" fill="#8fc4bc" stroke="#8fc4bc" stroke-width="1.51"/><path d="M-242,-351L21,-233L215,-315Z" fill="#f1f9be" stroke="#f1f9be" stroke-width="1.51"/><path d="M163,830L216,909L291,898Z" fill="#8ab0b6" stroke="#8ab0b6" stroke-width="1.51"/><path d="M-56,585L163,830L170,479Z" fill="#9accbc" stroke="#9accbc" stroke-width="1.51"/><path d="M93,125L-12,260L104,411Z" fill="#bae2b6" stroke="#bae2b6" stroke-width="1.51"/><path d="M163,830L-128,938L216,909Z" fill="#93b1b5" stroke="#93b1b5" stroke-width="1.51"/><path d="M-140,1077L206,1178L216,909Z" fill="#909fad" stroke="#909fad" stroke-width="1.51"/><path d="M-128,938L-140,1077L216,909Z" fill="#98aab1" stroke="#98aab1" stroke-width="1.51"/><path d="M-15,1374L163,1318L206,1178Z" fill="#89899e" stroke="#89899e" stroke-width="1.51"/><path d="M-140,1077L-15,1374L206,1178Z" fill="#9491a7" stroke="#9491a7" stroke-width="1.51"/><path d="M-56,585L-134,733L163,830Z" fill="#9dc7bb" stroke="#9dc7bb" stroke-width="1.51"/><path d="M-126,-50L93,125L180,12Z" fill="#d9f0b3" stroke="#d9f0b3" stroke-width="1.51"/><path d="M21,-233L-126,-50L180,12Z" fill="#e5f5b2" stroke="#e5f5b2" stroke-width="1.51"/><path d="M104,411L-56,585L170,479Z" fill="#a3d7bb" stroke="#a3d7bb" stroke-width="1.51"/><path d="M-134,733L-128,938L163,830Z" fill="#9bbbb7" stroke="#9bbbb7" stroke-width="1.51"/><path d="M-126,-50L-123,104L93,125Z" fill="#dcf1b4" stroke="#dcf1b4" stroke-width="1.51"/><path d="M-12,260L-56,585L104,411Z" fill="#addcb9" stroke="#addcb9" stroke-width="1.51"/><path d="M-123,104L-12,260L93,125Z" fill="#cdebb4" stroke="#cdebb4" stroke-width="1.51"/><path d="M-212,261L-185,599L-56,585Z" fill="#addbc1" stroke="#addbc1" stroke-width="1.51"/><path d="M-140,1077L-336,1208L-15,1374Z" fill="#9992ad" stroke="#9992ad" stroke-width="1.51"/><path d="M-212,261L-56,585L-12,260Z" fill="#b6e0bb" stroke="#b6e0bb" stroke-width="1.51"/><path d="M-242,-351L-126,-50L21,-233Z" fill="#f2fabb" stroke="#f2fabb" stroke-width="1.51"/><path d="M-336,1208L-346,1324L-15,1374Z" fill="#958da7" stroke="#958da7" stroke-width="1.51"/><path d="M-123,104L-212,261L-12,260Z" fill="#cae9b9" stroke="#cae9b9" stroke-width="1.51"/><path d="M-242,-351L-216,-33L-126,-50Z" fill="#f1fabb" stroke="#f1fabb" stroke-width="1.51"/><path d="M-185,599L-134,733L-56,585Z" fill="#a4cfc0" stroke="#a4cfc0" stroke-width="1.51"/><path d="M-346,1026L-140,1077L-128,938Z" fill="#9ba7b8" stroke="#9ba7b8" stroke-width="1.51"/><path d="M-134,733L-314,670L-128,938Z" fill="#a0c3c2" stroke="#a0c3c2" stroke-width="1.51"/><path d="M-314,670L-346,1026L-128,938Z" fill="#9fb8c2" stroke="#9fb8c2" stroke-width="1.51"/><path d="M-330,178L-212,261L-123,104Z" fill="#d1edbf" stroke="#d1edbf" stroke-width="1.51"/><path d="M-216,-33L-330,178L-123,104Z" fill="#dff2bd" stroke="#dff2bd" stroke-width="1.51"/><path d="M-126,-50L-216,-33L-123,104Z" fill="#e3f4b9" stroke="#e3f4b9" stroke-width="1.51"/><path d="M-212,261L-314,670L-185,599Z" fill="#addac7" stroke="#addac7" stroke-width="1.51"/><path d="M-185,599L-314,670L-134,733Z" fill="#a4cdc5" stroke="#a4cdc5" stroke-width="1.51"/><path d="M-346,1026L-336,1208L-140,1077Z" fill="#9c9fb8" stroke="#9c9fb8" stroke-width="1.51"/><path d="M-330,178L-314,670L-212,261Z" fill="#bae2c6" stroke="#bae2c6" stroke-width="1.51"/><path d="M-242,-351L-330,178L-216,-33Z" fill="#edf8bf" stroke="#edf8bf" stroke-width="1.51"/><path d="M-330,178L-346,1026L-314,670Z" fill="#a9d2cc" stroke="#a9d2cc" stroke-width="1.51"/><path d="M-346,1026L-346,1324L-336,1208Z" fill="#9d97b8" stroke="#9d97b8" stroke-width="1.51"/></svg>